<svg xmlns="http://www.w3.org/2000/svg" preserveAspectRatio="xMidYMid meet" viewBox="57.48 30.63 596.52 198">

 <g>
  <title>background</title>
  <rect fill="none" id="canvas_background" height="242" width="663" y="-1" x="-1"/>
 </g>
 <g>
  <title>Layer 1</title>
  <path fill="#f43939" id="svg_2" d="m560.800008,31.999996c-14.5,3 -27.6,7.9 -32,11.8c-4,3.5 -3.6,4.3 28,54.400001c15.4,24.6 18.1,27 23.9,21.2l2.6,-2.6l-0.7,-17.1c-0.4,-9.5 -0.9,-18.6 -1.1,-20.2c-0.2,-1.7 -0.7,-6.4 -0.9,-10.5c-2,-28.5 -2.7,-34.500001 -4.4,-36.200001c-2.7,-2.6 -6.1,-2.8 -15.4,-0.8z"/>
  <path fill="#f43939" id="svg_3" d="m619.200009,97.199997c-17.9,24.5 -22.2,30.7 -22.2,32.4c0,1.1 0.9,3.4 2,5.1c1.7,2.9 2.5,3.3 6,3.3c5.1,0 42.500001,-9.5 45.700001,-11.5c3.3,-2.2 3,-7.3 -0.8,-14.8c-6.8,-13.5 -15.8,-23.7 -20.9,-23.7c-2.6,0 -3.8,1.1 -9.8,9.2z"/>
  <path id="svg_4" d="m217.400003,99.999997c-5.4,2.2 -5.4,1.8 -5.4,50.200001l0,44.700001l2.4,2.8c3.4,3.9 9.8,3.9 13.2,0l2.4,-2.8l0,-44.900001l0,-44.900001l-2.2,-2.5c-2.5,-2.9 -7.2,-4 -10.4,-2.6z"/>
  <path id="svg_5" d="m337.400005,99.999997c-5.4,2.2 -5.4,1.8 -5.4,50.200001l0,44.700001l2.4,2.8c3.4,3.9 9.8,3.9 13.2,0l2.4,-2.8l0,-44.900001l0,-44.900001l-2.2,-2.5c-2.5,-2.9 -7.2,-4 -10.4,-2.6z"/>
  <path id="svg_6" d="m251.500004,101.399997c-1.6,0.7 -3.9,2.3 -5,3.6c-1.9,2.1 -2,3.6 -2,46.100001l0,43.900001l2.8,2.7c3.8,3.9 10.6,3.8 14.5,-0.1c2.6,-2.6 2.7,-3 3.2,-17.9l0.5,-15.2l18,-0.5c16.2,-0.4 18.5,-0.7 23.2,-2.9c6.1,-2.7 11.6,-8.4 14.6,-15c3.2,-6.9 3.1,-20.7 -0.2,-27.9c-2.9,-6.4 -10.3,-13.3 -16.9,-15.8c-6.4,-2.4 -48.000001,-3.2 -52.700001,-1zm44.200001,19c6.6,3.4 9,12.9 4.8,19.3c-3.5,5.3 -6.8,6.3 -21.7,6.3l-13.8,0l0,-13.3c0,-7.4 0.3,-13.7 0.8,-14.1c0.4,-0.5 6.6,-0.6 13.7,-0.4c9.6,0.3 13.9,0.9 16.2,2.2z"/>
  <path fill="#f43939" id="svg_7" d="m516.600008,122.099997c-3.4,2.7 -5,10.2 -5,24.4c0,10.3 0.3,12.6 2,15.5c1.1,1.9 2.8,3.7 3.8,3.8c1.1,0.2 12,-2.9 24.3,-6.9c20.4,-6.7 22.6,-7.6 24,-10.2c1.8,-3.6 0.9,-8.3 -2,-10.2c-2.4,-1.5 -37.400001,-16.1 -41.900001,-17.5c-2.1,-0.6 -3.3,-0.4 -5.2,1.1z"/>
  <path id="svg_8" d="m157.700002,127.499997c-14.2,3.6 -23.6,13.6 -26.8,28.6c-2.3,10.9 1,24.9 7.8,32.8c4.4,5.1 9,8.2 16.3,10.7c11.2,3.8 32.3,1.2 38.600001,-4.7c4.6,-4.3 1.8,-11.9 -4.4,-11.9c-1.5,0 -5.3,0.9 -8.5,2c-11.6,4.1 -22.5,1.3 -28,-7.2c-5.2,-8 -5.8,-7.8 20.1,-7.8c24.4,0 26.4,-0.4 29.1,-5.2c2.7,-4.7 -1.1,-17.9 -7.6,-26.4c-7.1,-9.5 -23.2,-14.2 -36.600001,-10.9zm18,15.6c4.8,2.3 8,6.2 8.9,10.8l0.7,3.1l-18.2,0l-18.2,0l0.6,-2.3c3.4,-11.3 15.5,-16.8 26.2,-11.6z"/>
  <path id="svg_9" d="m464.000007,126.599997c-14.5,2.8 -23,11 -23,22.4c0,4.9 2.6,11.5 5.6,14.2c3.3,2.9 10.4,5.5 21.9,8.3c14.8,3.5 18.7,7.2 13.1,12.4c-5,4.7 -15.2,4.5 -25.9,-0.4c-6.2,-3 -9.7,-3.1 -12.8,-0.7c-3,2.5 -3,7.4 0.1,10.7c5.3,5.6 22.3,9.4 34.200001,7.5c18.3,-2.8 26.8,-12.6 23.7,-27.2c-2.2,-10.1 -8.9,-14.6 -28.2,-18.9c-5.1,-1.1 -10.2,-2.7 -11.5,-3.5c-3.1,-2 -2.6,-6 1.1,-8.8c3.9,-2.9 13.3,-2.8 20.1,0.2c8.9,4 14.6,2.3 14.6,-4.2c0,-4.4 -3.3,-7.3 -11,-9.7c-6.3,-2 -17.5,-3.1 -22,-2.3z"/>
  <path id="svg_10" d="m62.400001,128.399997c-3.4,1.5 -5.6,6 -4.7,9.6c0.3,1.1 6.1,15.6 12.8,32.2l12.3,30.2l-1.9,3.7c-2.5,5 -6,7.5 -11.3,8.3c-4.9,0.8 -7.5,3 -7.8,6.8c-0.7,8.7 10.1,12.1 22.2,7.1c4.7,-1.9 8.7,-5.9 11.5,-11.3c5.2,-10.3 31.5,-76.200001 31.5,-79.100001c0,-4.4 -1.5,-6.6 -5.5,-7.9c-3,-1 -4.1,-0.9 -7.3,0.7c-3.6,1.8 -3.9,2.3 -12.6,25.1c-6.2,16.2 -9.2,22.9 -9.8,21.8c-0.5,-0.8 -4.2,-10.3 -8.3,-21c-9.2,-24.2 -9.7,-25.1 -13.6,-26.5c-3.9,-1.3 -3.7,-1.3 -7.5,0.3z"/>
  <path id="svg_11" d="m369.400005,127.999997c-5.2,2.1 -5.4,3.5 -5.4,31c0,27 0.5,31.1 4.6,35.900001c7.3,8.7 27.4,8.7 39.300001,0c2.3,-1.6 4.3,-2.9 4.5,-2.9c0.2,0 0.6,1.3 0.9,3c1.3,6.2 11.4,7.8 15.7,2.3c1.9,-2.5 2,-3.9 2,-33.4l0,-30.8l-2.4,-2.8c-3.2,-3.7 -9.3,-3.9 -13,-0.4l-2.6,2.4l0,22.3l0,22.2l-3.2,2.8c-8.7,7.3 -21.1,7.3 -25.9,0c-1.1,-1.6 -1.5,-7.5 -1.9,-24.8c-0.5,-21.1 -0.6,-22.9 -2.5,-24.8c-2.4,-2.3 -7.1,-3.3 -10.1,-2z"/>
  <path fill="#f43939" id="svg_12" d="m601.600009,159.099998c-1.4,1.7 -2.6,3.8 -2.6,4.7c0,1.8 4.8,10.4 16.3,29.2c8.9,14.5 9.3,15 13.1,15c6.4,0 25.6,-23.7 25.6,-31.7c0,-2.4 -0.7,-3.7 -2.5,-4.9c-2.8,-1.8 -42.800001,-15.4 -45.500001,-15.4c-1,0 -3,1.4 -4.4,3.1z"/>
  <path fill="#f43939" id="svg_13" d="m555.500008,183.699998c-16.5,19.9 -17.6,22 -13.2,26c2.9,2.7 12.8,7.6 20.5,10.2c7.2,2.5 15.4,2.7 17.5,0.6c1.8,-1.7 3.1,-23.6 2.6,-40.800001c-0.4,-10 -0.6,-11 -2.8,-12.8c-1.3,-1 -3.8,-1.9 -5.7,-1.9c-3.2,0 -4.4,1.1 -18.9,18.7z"/>
 </g>
</svg>